<svg width="1629" height="408" viewBox="0 0 1629 408" fill="none" xmlns="http://www.w3.org/2000/svg">
<g clip-path="url(#clip0_739_1087)">
<path d="M82.5503 231.582L0 176.095V110.43L82.5503 165.807V231.582Z" fill="url(#paint0_linear_739_1087)"/>
<path d="M247.541 407.999L82.5503 297.243V231.578L247.541 342.334V407.999Z" fill="url(#paint1_linear_739_1087)"/>
<path d="M82.5503 231.582L164.991 176.095V110.43L82.5503 165.807V231.582Z" fill="#0B5CFC"/>
<path d="M247.542 231.582L164.991 176.095V110.43L247.542 165.807V231.582Z" fill="#2734FF"/>
<path d="M247.542 231.582L330.092 176.095V110.43L247.542 165.807V231.582Z" fill="url(#paint2_linear_739_1087)"/>
<path d="M247.542 407.999L412.533 297.243V231.578L247.542 342.334V407.999Z" fill="url(#paint3_linear_739_1087)"/>
<path d="M164.334 0.109442L0 110.427L82.5503 165.805L164.991 110.427L247.541 165.805L330.092 110.427L165.539 0L164.334 0.109442Z" fill="#ECF4FF"/>
<path d="M247.541 342.336L412.533 231.581L330.092 176.094L247.541 231.581L164.991 176.094L82.5503 231.581L247.541 342.336Z" fill="#ECF4FF"/>
<path d="M560.225 91.7109H533.949V266.38H645.075V241.428H560.225V91.7109Z" fill="#0B0E3A"/>
<path d="M1173.99 91.7109H1147.71V266.38H1258.84V241.428H1173.99V91.7109Z" fill="#0B0E3A"/>
<path d="M1592.87 194.038L1570.43 190.317C1557.95 187.8 1551.7 182.766 1551.7 175.324C1551.71 173.117 1552.29 170.949 1553.39 169.032C1554.48 167.114 1556.05 165.512 1557.95 164.38C1563.61 161.086 1570.13 159.562 1576.67 160.002C1583.56 159.558 1590.4 161.489 1596.05 165.474C1598.02 166.833 1599.65 168.624 1600.83 170.71C1602.01 172.796 1602.69 175.122 1602.83 177.513H1627.8C1627.69 173.368 1626.68 169.297 1624.84 165.583C1622.47 161.072 1619.48 156.91 1615.97 153.217C1611.38 148.622 1605.8 145.14 1599.66 143.038C1592.31 140.294 1584.51 138.922 1576.67 138.989C1563.49 138.138 1550.41 141.763 1539.55 149.277C1535.53 152.265 1532.27 156.164 1530.04 160.653C1527.82 165.142 1526.69 170.095 1526.74 175.105C1526.74 195.242 1538.79 207.317 1562.87 211.33L1585.32 215.051C1590.6 215.497 1595.65 217.433 1599.88 220.633C1601.32 222.049 1602.44 223.761 1603.16 225.65C1603.87 227.539 1604.18 229.561 1604.04 231.577C1603.88 233.789 1603.2 235.932 1602.06 237.834C1600.92 239.735 1599.35 241.341 1597.47 242.521C1591.6 246.142 1584.75 247.827 1577.87 247.337C1570.31 247.84 1562.8 245.713 1556.63 241.317C1554.5 239.914 1552.72 238.039 1551.43 235.837C1550.14 233.636 1549.37 231.167 1549.19 228.622H1524.22C1524.33 232.824 1525.3 236.96 1527.07 240.77C1529.33 245.456 1532.28 249.774 1535.83 253.575C1540.53 258.527 1546.35 262.28 1552.8 264.519C1560.82 267.468 1569.32 268.915 1577.87 268.787C1591.45 269.631 1604.91 265.766 1615.97 257.843C1620.09 254.729 1623.42 250.688 1625.68 246.049C1627.94 241.409 1629.08 236.301 1629 231.139C1629 210.345 1616.96 197.978 1592.87 194.038Z" fill="#0B0E3A"/>
<path d="M938.052 144.243L942.212 157.486L934.986 159.784L932.468 151.904L930.607 149.497C927.022 146.747 923.034 144.569 918.783 143.04C912.138 140.24 904.97 138.897 897.762 139.1C890.024 138.891 882.333 140.368 875.225 143.43C868.116 146.492 861.759 151.064 856.596 156.829C845.332 169.887 839.529 186.778 840.393 203.999C839.476 221.45 845.407 238.569 856.925 251.716C862.101 257.339 868.427 261.783 875.473 264.748C882.519 267.712 890.121 269.128 897.762 268.898C904.224 269.195 910.678 268.141 916.71 265.805C922.743 263.468 928.221 259.899 932.796 255.327L934.658 249.417L941.884 251.716L939.256 260.252L940.241 266.381H962.138V91.2734H938.052V144.243ZM927.76 234.752C924.534 238.427 920.56 241.371 916.104 243.388C911.649 245.405 906.813 246.449 901.922 246.449C897.031 246.449 892.196 245.405 887.74 243.388C883.284 241.371 879.311 238.427 876.084 234.752C868.702 226.238 864.793 215.26 865.136 203.999C864.8 192.771 868.709 181.829 876.084 173.355C879.311 169.68 883.284 166.736 887.74 164.719C892.196 162.702 897.031 161.658 901.922 161.658C906.813 161.658 911.649 162.702 916.104 164.719C920.56 166.736 924.534 169.68 927.76 173.355C934.908 181.921 938.581 192.856 938.052 203.999C938.576 215.174 934.906 226.142 927.76 234.752V234.752Z" fill="#0B0E3A"/>
<path d="M1319.49 139.098C1306.43 138.374 1293.53 142.247 1283.03 150.043C1278.73 153.302 1275.17 157.454 1272.62 162.215C1270.07 166.975 1268.58 172.231 1268.25 177.622H1293.22C1294.36 172.811 1297.1 168.529 1300.99 165.474C1306.36 161.624 1312.89 159.731 1319.49 160.111C1322.99 159.905 1326.5 160.42 1329.8 161.625C1333.09 162.83 1336.11 164.699 1338.65 167.116C1341.07 169.682 1342.93 172.714 1344.14 176.025C1345.34 179.337 1345.86 182.859 1345.66 186.377V188.785H1314.46C1300.79 187.777 1287.21 191.656 1276.14 199.729C1271.87 203.455 1268.5 208.098 1266.28 213.31C1264.06 218.522 1263.05 224.168 1263.33 229.826C1263.14 235.116 1264.15 240.379 1266.27 245.229C1268.39 250.078 1271.58 254.389 1275.59 257.843C1284.79 265.462 1296.5 269.366 1308.43 268.787C1318.51 269.072 1328.44 266.286 1336.9 260.798C1339.28 259.173 1341.48 257.302 1343.47 255.216L1345.33 249.307L1352.66 251.605L1349.05 262.549V265.832H1370.29V186.596C1370.73 180.246 1369.83 173.875 1367.64 167.897C1365.45 161.919 1362.03 156.47 1357.59 151.903C1347.09 142.757 1333.39 138.151 1319.49 139.098V139.098ZM1345.66 213.957C1345.96 218.493 1345.32 223.044 1343.78 227.321C1342.23 231.597 1339.82 235.506 1336.68 238.8C1333.16 241.925 1329.05 244.318 1324.6 245.84C1320.14 247.362 1315.43 247.982 1310.73 247.665C1304.72 248.102 1298.76 246.31 1293.98 242.631C1292.07 240.924 1290.56 238.808 1289.57 236.44C1288.59 234.072 1288.15 231.512 1288.29 228.95C1288.2 226.166 1288.78 223.401 1289.98 220.887C1291.18 218.373 1292.96 216.184 1295.19 214.504C1301.22 210.374 1308.48 208.442 1315.77 209.032H1345.66V213.957Z" fill="#0B0E3A"/>
<path d="M772.623 139.1C763.103 138.956 753.746 141.58 745.69 146.651C744.048 147.746 742.624 149.059 741.092 150.263L739.011 156.939L731.676 154.64L733.866 147.746L732.661 141.617H710.765V266.381H735.727V191.522C735.621 187.6 736.346 183.7 737.856 180.079C739.365 176.457 741.625 173.196 744.485 170.509C750.735 164.657 759.024 161.476 767.586 161.645C771.658 161.469 775.721 162.17 779.498 163.699C783.276 165.229 786.681 167.551 789.483 170.509C792.255 173.257 794.449 176.532 795.935 180.141C797.42 183.75 798.167 187.62 798.132 191.522V266.381H823.094V191.522C823.377 184.514 822.265 177.518 819.822 170.943C817.378 164.367 813.653 158.342 808.862 153.218C804.147 148.459 798.485 144.744 792.242 142.311C785.999 139.879 779.315 138.785 772.623 139.1V139.1Z" fill="#0B0E3A"/>
<path d="M1045.13 228.624V239.568H1037.46V236.394L1001.33 141.618H975.057L1026.19 275.137L1022.13 286.081C1021.64 288.035 1020.62 289.815 1019.18 291.225C1018.5 291.999 1017.65 292.616 1016.71 293.031C1015.76 293.447 1014.74 293.652 1013.7 293.633H988.743V315.521H1014.91C1022.07 315.994 1029.2 314.194 1035.27 310.377C1040.46 306.244 1044.28 300.634 1046.22 294.289L1100.96 141.07H1074.69L1045.13 228.624Z" fill="#0B0E3A"/>
<path d="M664.891 124.653H670.256L689.963 117.977V91.9297H664.891V124.653Z" fill="#0B0E3A"/>
<path d="M664.891 266.381H689.963V141.508L664.891 141.836V266.381Z" fill="#0B0E3A"/>
<path d="M1456.13 139.1C1449.21 139.02 1442.36 140.361 1435.98 143.04C1431.72 144.542 1427.73 146.723 1424.16 149.497C1423.61 149.497 1423.06 150.591 1422.51 151.138L1419.78 159.784L1412.44 157.486L1416.16 145.994V91.2734H1391.2V266.381H1413.65L1414.85 259.158L1412.33 251.715L1419.67 249.417L1421.86 256.093C1426.41 260.426 1431.79 263.794 1437.68 265.994C1443.57 268.195 1449.85 269.182 1456.13 268.898C1463.82 269.175 1471.49 267.783 1478.59 264.817C1485.7 261.851 1492.08 257.381 1497.29 251.715C1508.56 238.658 1514.36 221.766 1513.5 204.546C1514.36 187.326 1508.56 170.434 1497.29 157.376C1492.18 151.512 1485.85 146.837 1478.73 143.679C1471.62 140.522 1463.91 138.959 1456.13 139.1V139.1ZM1478.02 234.752C1474.8 238.427 1470.82 241.371 1466.37 243.388C1461.91 245.405 1457.08 246.449 1452.18 246.449C1447.29 246.449 1442.46 245.405 1438 243.388C1433.55 241.371 1429.57 238.427 1426.35 234.752C1419.2 226.142 1415.53 215.174 1416.06 203.999C1415.53 192.856 1419.2 181.921 1426.35 173.355C1429.57 169.68 1433.55 166.736 1438 164.719C1442.46 162.702 1447.29 161.658 1452.18 161.658C1457.08 161.658 1461.91 162.702 1466.37 164.719C1470.82 166.736 1474.8 169.68 1478.02 173.355C1485.4 181.829 1489.31 192.771 1488.97 203.999C1489.31 215.26 1485.41 226.238 1478.02 234.752V234.752Z" fill="#0B0E3A"/>
</g>
<defs>
<linearGradient id="paint0_linear_739_1087" x1="15.3276" y1="151.033" x2="171.298" y2="271.038" gradientUnits="userSpaceOnUse">
<stop stop-color="#129EFE"/>
<stop offset="1" stop-color="#0BEEFF"/>
</linearGradient>
<linearGradient id="paint1_linear_739_1087" x1="82.5503" y1="319.788" x2="247.541" y2="319.788" gradientUnits="userSpaceOnUse">
<stop stop-color="#129EFE"/>
<stop offset="1" stop-color="#0BEEFF"/>
</linearGradient>
<linearGradient id="paint2_linear_739_1087" x1="340.602" y1="135.93" x2="272.301" y2="182.138" gradientUnits="userSpaceOnUse">
<stop stop-color="#F83454"/>
<stop offset="1" stop-color="#F88413"/>
</linearGradient>
<linearGradient id="paint3_linear_739_1087" x1="403.555" y1="268.898" x2="267.938" y2="362.956" gradientUnits="userSpaceOnUse">
<stop stop-color="#F83454"/>
<stop offset="1" stop-color="#F88413"/>
</linearGradient>
<clipPath id="clip0_739_1087">
<rect width="1629" height="408" fill="white"/>
</clipPath>
</defs>
</svg>
